<?xml version="1.0" standalone="no"?>
<!DOCTYPE svg PUBLIC "-//W3C//DTD SVG 20010904//EN"
 "http://www.w3.org/TR/2001/REC-SVG-20010904/DTD/svg10.dtd">
<svg version="1.0" xmlns="http://www.w3.org/2000/svg"
 width="256.000000pt" height="256.000000pt" viewBox="0 0 256.000000 256.000000"
 preserveAspectRatio="xMidYMid meet">

<g transform="translate(0.000000,256.000000) scale(0.100000,-0.100000)"
fill="#000000" stroke="none">
<path d="M750 2339 c-249 -21 -392 -96 -461 -242 -66 -143 -79 -278 -79 -822
1 -542 15 -684 82 -818 74 -149 212 -216 483 -237 165 -13 851 -13 1014 0 392
31 520 159 551 551 13 163 13 849 0 1014 -30 395 -158 524 -551 555 -150 12
-892 11 -1039 -1z m73 -687 c9 -9 33 -60 54 -113 52 -128 118 -243 174 -301
74 -78 89 -56 89 131 -1 126 -9 169 -44 220 -31 44 -31 45 -10 65 12 13 41 16
153 16 93 0 141 -4 149 -12 8 -8 12 -65 12 -189 0 -98 3 -184 6 -193 24 -63
146 70 245 268 27 56 57 107 66 114 17 12 197 18 227 6 9 -3 16 -17 16 -30 0
-34 -69 -169 -151 -295 -38 -58 -69 -114 -69 -123 0 -10 39 -60 87 -111 151
-163 196 -253 137 -275 -34 -13 -176 -13 -211 1 -15 5 -63 48 -107 95 -114
123 -195 174 -231 144 -12 -10 -15 -37 -15 -116 0 -97 -1 -104 -22 -115 -13
-7 -52 -12 -88 -12 -128 2 -300 82 -396 184 -69 74 -173 229 -225 334 -43 88
-99 254 -99 291 0 25 35 33 136 34 84 0 104 -3 117 -18z"/>
</g>
</svg>
